# xmcd
#
# Track frame offsets: 
#        150
#        16081
#        26226
#        37609
#        49672
#        59598
#        72337
#        84680
#        94285
#        105453
#        117640
#        126647
#        142407
#        154572
#        167719
#        178029
#
# Disc length: 2530 seconds
#
# Revision: 0
# Processed by: cddbd v1.5.2PL0 Copyright (c) Steve Scherf et al.
# Submitted via: ExactAudioCopy v0.95b3
#
DISCID=e409e010
DTITLE=Various Artist - Just Country (Digitally Remastered)
DYEAR=2000
DGENRE=Country
TTITLE0=Bill Anderson - Detroit City
TTITLE1=Billie Jo Spears -  It Makes no difference now
TTITLE2=Boddy Bare - That's how I got to Memphis
TTITLE3=Conway twitty - Golly Gosh Oh Gee
TTITLE4=Dave Dudley - Six Days on the Road
TTITLE5=Faron Young - Country Girl
TTITLE6=Ferlin Husky - The letter You promised to write
TTITLE7=Glen Campbell - Gentle on my mind-live
TTITLE8=Hank locklin - To whom it may concern
TTITLE9=Hank Thompson - I've got a humpty dumpty heart
TTITLE10=Patsy Cline - I love you honey
TTITLE11=Roy Clark - Me and Bobby McGee
TTITLE12=Slim Willett -  Dont let the stars get in your eye's
TTITLE13=The Jordanaires - i'd like to teach the world to sing
TTITLE14=Tommy Overstreet - Ann (Don't Go Runnin')
TTITLE15=Waylon Jennings - Crying
EXTD=
EXTT0=
EXTT1=
EXTT2=
EXTT3=
EXTT4=
EXTT5=
EXTT6=
EXTT7=
EXTT8=
EXTT9=
EXTT10=
EXTT11=
EXTT12=
EXTT13=
EXTT14=
EXTT15=
PLAYORDER=
